:FULLY-SPECIFIED
:FORCE-ALL-JOINTS-BE-3DOF
:DEGREES
2039
root -2.21936 15.0142 21.5034 -170.42 21.3881 -177.31
lfemur -32.2194 17.8924 -7.44626
ltibia 72.9333 -0 0
lfoot -8.92426 19.949 -0.830076
ltoes -12.8361 0 0
rfemur -30.3802 -12.1211 22.0697
rtibia 60.6966 -0 0
rfoot -21.5505 -22.6315 0.205799
rtoes -14.3857 0 0
lowerback 11.6317 0.528371 1.98246
upperback -0.721234 1.38332 3.35421
thorax -7.36626 0.72624 2.22649
lowerneck -2.93367 3.26659 -0.794393
upperneck 1.88242 4.48685 -1.63751
head 1.85036 2.20679 -0.199671
lclavicle 1.63408e-14 1.21386e-14 -4.14069e-30
lhumerus -18.4738 -12.0147 74.8829
lradius 56.2852 -0 0
lwrist -14.0994 0 0
lhand -21.9839 63.7754 0.416476
lfingers 7.12502 -0 0
lthumb 2.39474 163.24 7.92981
rclavicle 1.63408e-14 1.21386e-14 -4.14069e-30
rhumerus -20.5039 24.293 -74.8706
rradius 76.2181 -0 0
rwrist -47.2126 0 0
rhand -2.79141 -44.3819 -0.051999
rfingers 7.12502 -0 0
rthumb 22.9105 -73 -0.0377823
2040
root -2.23109 15.0214 21.2943 -170.543 20.7487 -177.412
lfemur -31.7374 17.4809 -7.55606
ltibia 73.0576 -0 0
lfoot -8.72691 19.5647 -0.838385
ltoes -13.4584 0 0
rfemur -30.7398 -11.7881 22.1406
rtibia 60.7841 -0 0
rfoot -21.4916 -22.3158 0.207857
rtoes -14.0412 0 0
lowerback 11.6058 0.585521 1.91001
upperback -0.723593 1.44001 3.29041
thorax -7.35527 0.753766 2.1901
lowerneck -2.91862 3.02077 -0.959013
upperneck 1.8949 4.15732 -1.42362
head 1.84909 2.04341 -0.110476
lclavicle 1.54703e-14 1.16049e-14 -4.23443e-30
lhumerus -19.4753 -12.5186 75.4866
lradius 57.3136 -0 0
lwrist -13.0208 0 0
lhand -21.6503 63.9404 0.415924
lfingers 7.12502 -0 0
lthumb 2.76214 165.202 8.03826
rclavicle 1.54703e-14 1.16049e-14 -4.23443e-30
rhumerus -18.7915 24.2863 -74.1966
rradius 75.2636 -0 0
rwrist -46.2834 0 0
rhand -2.89135 -44.3362 -0.0525381
rfingers 7.12502 -0 0
rthumb 22.8146 -72.9658 -0.0381786
2041
root -2.24285 15.0286 21.0844 -170.664 20.1071 -177.512
lfemur -31.2543 17.069 -7.66961
ltibia 73.183 -0 0
lfoot -8.52912 19.1791 -0.84542
ltoes -14.0829 0 0
rfemur -31.0998 -11.4533 22.2097
rtibia 60.8719 -0 0
rfoot -21.4325 -21.999 0.209592
rtoes -13.6957 0 0
lowerback 11.5798 0.642879 1.83735
upperback -0.726012 1.49696 3.22637
thorax -7.34429 0.781425 2.15352
lowerneck -2.90279 2.77414 -1.1242
upperneck 1.90614 3.82661 -1.20916
head 1.84756 1.87947 -0.0209925
lclavicle 1.45918e-14 1.10654e-14 -4.32088e-30
lhumerus -20.4878 -13.0143 76.1026
lradius 58.3459 -0 0
lwrist -11.9385 0 0
lhand -21.316 64.1049 0.414398
lfingers 7.12502 -0 0
lthumb 3.1344 167.164 8.13613
rclavicle 1.45918e-14 1.10654e-14 -4.32088e-30
rhumerus -17.0733 24.2615 -73.5208
rradius 74.3059 -0 0
rwrist -45.3508 0 0
rhand -2.99156 -44.2902 -0.0529971
rfingers 7.12502 -0 0
rthumb 22.7184 -72.9313 -0.0385167
2042
root -2.25463 15.0359 20.8739 -170.784 19.4637 -177.61
lfemur -30.7702 16.657 -7.78686
ltibia 73.3093 -0 0
lfoot -8.33098 18.7924 -0.851165
ltoes -14.7092 0 0
rfemur -31.4601 -11.117 22.2768
rtibia 60.96 -0 0
rfoot -21.3734 -21.6812 0.211001
rtoes -13.3494 0 0
lowerback 11.5537 0.700411 1.76453
upperback -0.72849 1.55414 3.16214
thorax -7.33333 0.809201 2.11678
lowerneck -2.88618 2.52687 -1.28986
upperneck 1.91614 3.49494 -0.994251
head 1.84576 1.71508 0.0687293
lclavicle 1.37061e-14 1.05206e-14 -4.39976e-30
lhumerus -21.5108 -13.5011 76.7308
lradius 59.3815 -0 0
lwrist -10.853 0 0
lhand -20.9814 64.2688 0.411903
lfingers 7.12502 -0 0
lthumb 3.51105 169.126 8.22317
rclavicle 1.37061e-14 1.05206e-14 -4.39976e-30
rhumerus -15.3508 24.2183 -72.8444
rradius 73.3454 -0 0
rwrist -44.4154 0 0
rhand -3.09199 -44.244 -0.0533749
rfingers 7.12502 -0 0
rthumb 22.622 -72.8967 -0.0387959
2043
root -2.26643 15.0431 20.6629 -170.903 18.8189 -177.706
lfemur -30.2854 16.2451 -7.90775
ltibia 73.4365 -0 0
lfoot -8.13263 18.4048 -0.855607
ltoes -15.337 0 0
rfemur -31.8205 -10.7794 22.342
rtibia 61.0484 -0 0
rfoot -21.3142 -21.3626 0.212081
rtoes -13.0024 0 0
lowerback 11.5276 0.758081 1.6916
upperback -0.731026 1.61151 3.09775
thorax -7.32241 0.837076 2.07991
lowerneck -2.86879 2.2791 -1.45591
upperneck 1.92488 3.16249 -0.779002
head 1.84368 1.55033 0.158638
lclavicle 1.28138e-14 9.97114e-15 -4.47077e-30
lhumerus -22.5439 -13.9783 77.3708
lradius 60.4198 -0 0
lwrist -9.7651 0 0
lhand -20.6467 64.4317 0.408447
lfingers 7.12502 -0 0
lthumb 3.8916 171.089 8.29914
rclavicle 1.28138e-14 9.97114e-15 -4.47077e-30
rhumerus -13.6255 24.1566 -72.1684
rradius 72.3826 -0 0
rwrist -43.4778 0 0
rhand -3.19256 -44.1976 -0.0536705
rfingers 7.12502 -0 0
rthumb 22.5255 -72.8619 -0.0390154
2044
root -2.27824 15.0504 20.4515 -171.02 18.173 -177.801
lfemur -29.8002 15.8336 -8.0322
ltibia 73.5644 -0 0
lfoot -7.93417 18.0165 -0.858736
ltoes -15.9658 0 0
rfemur -32.1807 -10.4407 22.4052
rtibia 61.1371 -0 0
rfoot -21.2551 -21.0435 0.212829
rtoes -12.655 0 0
lowerback 11.5015 0.815855 1.61858
upperback -0.733621 1.66904 3.03325
thorax -7.31151 0.865033 2.04293
lowerneck -2.85063 2.03099 -1.62224
upperneck 1.93235 2.82948 -0.563528
head 1.84134 1.38531 0.248681
lclavicle 1.19156e-14 9.41739e-15 -4.53366e-30
lhumerus -23.5864 -14.4455 78.0221
lradius 61.4602 -0 0
lwrist -8.6754 0 0
lhand -20.3123 64.5936 0.404043
lfingers 7.12502 -0 0
lthumb 4.27554 173.051 8.36383
rclavicle 1.19156e-14 9.41739e-15 -4.53366e-30
rhumerus -11.8989 24.0766 -71.4939
rradius 71.4183 -0 0
rwrist -42.5386 0 0
rhand -3.29323 -44.151 -0.0538833
rfingers 7.12502 -0 0
rthumb 22.4288 -72.8269 -0.0391746
2045
root -2.29006 15.0577 20.2399 -171.136 17.5264 -177.894
lfemur -29.3148 15.4228 -8.16015
ltibia 73.693 -0 0
lfoot -7.73573 17.6279 -0.860546
ltoes -16.5952 0 0
rfemur -32.5405 -10.101 22.4663
rtibia 61.2258 -0 0
rfoot -21.196 -20.724 0.213244
rtoes -12.3073 0 0
lowerback 11.4753 0.873697 1.54552
upperback -0.736274 1.7267 2.96868
thorax -7.30066 0.893056 2.00586
lowerneck -2.83172 1.78267 -1.78878
upperneck 1.93855 2.49611 -0.34794
head 1.83873 1.22013 0.338808
lclavicle 1.1012e-14 8.85992e-15 -4.58821e-30
lhumerus -24.6377 -14.9019 78.6843
lradius 62.5021 -0 0
lwrist -7.58454 0 0
lhand -19.9782 64.7543 0.398706
lfingers 7.12502 -0 0
lthumb 4.66235 175.014 8.41705
rclavicle 1.1012e-14 8.85992e-15 -4.58821e-30
rhumerus -10.1726 23.9781 -70.822
rradius 70.453 -0 0
rwrist -41.5983 0 0
rhand -3.39392 -44.1043 -0.0540126
rfingers 7.12502 -0 0
rthumb 22.3322 -72.7918 -0.0392732
2046
root -2.30187 15.065 20.0281 -171.251 16.8795 -177.986
lfemur -28.8295 15.013 -8.2915
ltibia 73.8222 -0 0
lfoot -7.53742 17.2391 -0.861031
ltoes -17.2249 0 0
rfemur -32.8997 -9.76063 22.5254
rtibia 61.3147 -0 0
rfoot -21.1369 -20.4043 0.213325
rtoes -11.9597 0 0
lowerback 11.4491 0.931574 1.47246
upperback -0.738982 1.78444 2.90407
thorax -7.28986 0.921128 1.96873
lowerneck -2.81206 1.53431 -1.95542
upperneck 1.94347 2.16257 -0.132351
head 1.83585 1.05488 0.428967
lclavicle 1.01038e-14 8.29924e-15 -4.63421e-30
lhumerus -25.6973 -15.347 79.357
lradius 63.5447 -0 0
lwrist -6.49318 0 0
lhand -19.6447 64.9135 0.392458
lfingers 7.12502 -0 0
lthumb 5.05151 176.976 8.45862
rclavicle 1.01038e-14 8.29924e-15 -4.63421e-30
rhumerus -8.44801 23.8614 -70.1538
rradius 69.4872 -0 0
rwrist -40.6574 0 0
rhand -3.49459 -44.0575 -0.0540583
rfingers 7.12502 -0 0
rthumb 22.2356 -72.7565 -0.0393108
2047
root -2.31368 15.0723 19.8163 -171.364 16.2327 -178.076
lfemur -28.3445 14.6046 -8.42618
ltibia 73.952 -0 0
lfoot -7.33936 16.8503 -0.860193
ltoes -17.8544 0 0
rfemur -33.2582 -9.41976 22.5823
rtibia 61.4036 -0 0
rfoot -21.078 -20.0846 0.213071
rtoes -11.6121 0 0
lowerback 11.4229 0.98945 1.39945
upperback -0.741745 1.84224 2.83947
thorax -7.2791 0.949231 1.93157
lowerneck -2.79167 1.28605 -2.12209
upperneck 1.94712 1.82907 0.083127
head 1.8327 0.889671 0.519106
lclavicle 9.19158e-15 7.73586e-15 -4.6715e-30
lhumerus -26.7645 -15.7804 80.0397
lradius 64.5876 -0 0
lwrist -5.40196 0 0
lhand -19.3122 65.071 0.385319
lfingers 7.12502 -0 0
lthumb 5.44249 178.937 8.48841
rclavicle 9.19158e-15 7.73586e-15 -4.6715e-30
rhumerus -6.72663 23.7266 -69.4905
rradius 68.5215 -0 0
rwrist -39.7166 0 0
rhand -3.59516 -44.0106 -0.05402
rfingers 7.12502 -0 0
rthumb 22.139 -72.7212 -0.0392874
2048
root -2.32547 15.0795 19.6046 -171.476 15.5864 -178.164
lfemur -27.86 14.1976 -8.56407
ltibia 74.0823 -0 0
lfoot -7.14166 16.4619 -0.858034
ltoes -18.4835 0 0
rfemur -33.6157 -9.07862 22.6371
rtibia 61.4924 -0 0
rfoot -21.0193 -19.765 0.212484
rtoes -11.265 0 0
lowerback 11.3968 1.04729 1.32652
upperback -0.744562 1.90006 2.77491
thorax -7.26841 0.977349 1.8944
lowerneck -2.77055 1.03804 -2.28867
upperneck 1.94949 1.49582 0.298382
head 1.8293 0.724588 0.609174
lclavicle 8.27597e-15 7.17029e-15 -4.69993e-30
lhumerus -27.8387 -16.2015 80.7319
lradius 65.63 -0 0
lwrist -4.31153 0 0
lhand -18.9808 65.2267 0.377319
lfingers 7.12502 -0 0
lthumb 5.83475 -179.102 8.50629
rclavicle 8.27597e-15 7.17029e-15 -4.69993e-30
rhumerus -5.0099 23.574 -68.8329
rradius 67.5566 -0 0
rwrist -38.7765 0 0
rhand -3.69558 -43.9636 -0.053898
rfingers 7.12502 -0 0
rthumb 22.0426 -72.6858 -0.039203
